<?xml version="1.0"?>
<svg xmlns="http://www.w3.org/2000/svg" xmlns:xlink="http://www.w3.org/1999/xlink" xmlns:svgjs="http://svgjs.com/svgjs"
    version="1.1" width="512" height="512" x="0" y="0" viewBox="0 0 50 58" style="enable-background:new 0 0 512 512"
    xml:space="preserve" class="">
    <g transform="matrix(1.14,0,0,1.14,-3.4999999998624602,-4.060031509399348)">
        <g xmlns="http://www.w3.org/2000/svg" id="Page-1" fill="none" fill-rule="evenodd">
            <g id="026---Shield" fill-rule="nonzero">
                <path id="Shape"
                    d="m48.84 11.51c-2.78-1.29-9.94-4.99-13.87-10.61-.3771892-.55372128-1.0000992-.88942131-1.67-.9h-16.6c-.6699008.01057869-1.2928108.34627872-1.67.9-3.93 5.62-11.09 9.32-13.87 10.61-.70905744.3226098-1.16305785 1.031007-1.16 1.81v25.36c.00051828.7300401.20111831 1.4459747.58 2.07 2.06 3.4 9.64 14.33 23.63 17.17.5212669.1066563 1.0587331.1066563 1.58 0 13.99-2.84 21.57-13.77 23.63-17.17.3788817-.6240253.5794817-1.3399599.58-2.07v-25.36c.0030578-.778993-.4509426-1.4873902-1.16-1.81z"
                    fill="#2d8ab6" data-original="#f3d55b" style="" class="" />
                <path id="Shape"
                    d="m25 0v29h-25.00001535l.00001535-15.68c-.00305785-.778993.45094256-1.4873902 1.16-1.81 2.78-1.29 9.94-4.99 13.87-10.61.3771892-.55372128 1.0000992-.88942131 1.67-.9z"
                    fill="#b7dfe7" data-original="#547580" style="" class="" />
                <path id="Shape"
                    d="m50 29v9.68c-.0005183.7300401-.2011183 1.4459747-.58 2.07-2.06 3.4-9.64 14.33-23.63 17.17-.2594892.0562764-.5244967.0831126-.79.0802427v-29.0002427z"
                    fill="#a08c43" data-original="#2c3e50" style="" class="" />
                <path id="Shape"
                    d="m25 29v29.0002427c-.2655033.0028699-.5305108-.0239663-.79-.0802427-13.99-2.84-21.57-13.77-23.63-17.17-.37888169-.6240253-.57948172-1.3399599-.58-2.07v-9.68z"
                    fill="#f9f9ee" data-original="#f29c1f" style="" class="" />
                <path id="Shape"
                    d="m5.573 42c-.31599409-.0016471-.61261725-.1525542-.8-.407-.753-1.022-1.3-1.871-1.622-2.4-.19306724-.3053689-.20640995-.6911321-.03490295-1.0091109s.50119257-.5187241.86241849-.525126.69781775.1825351.88048446.4942369c.3.5.814 1.3 1.523 2.258.22313326.3029699.25731179.7055469.08844791 1.0417971s-.51218285.5492491-.88844791.5512029z"
                    fill="#2d8ab6" data-original="#f3d55b" style="" class="" />
                <path id="Shape"
                    d="m18.971 53.063c-.1406039.0000057-.2796286-.0296393-.408-.087-3.8496927-1.7539914-7.3357707-4.2153109-10.277-7.256-.37712453-.3958211-.3664667-1.0211343.02392761-1.4038738.39039431-.3827396 1.01579596-.3810141 1.40407239.0038738 2.7653354 2.8624979 6.0443172 5.179428 9.666 6.83.4310299.1925982.6686462.6604069.5699412 1.1220758-.0987049.4616689-.5068389.791416-.9789412.7909242z"
                    fill="#2d8ab6" data-original="#f3d55b" style="" class="" />
                <g fill="#f5efca">
                    <path id="Shape"
                        d="m42 16c-.2651948-.0000566-.5195073-.1054506-.707-.293l-5-5c-.3789722-.3923789-.3735524-1.01608478.0121814-1.40181858.3857338-.38573379 1.0094397-.39115363 1.4018186-.01218142l5 5c.2859079.2859943.3714219.7160366.216678 1.0896546-.1547439.3736179-.5192821.6172591-.923678.6173454z"
                        fill="#f5efca" data-original="#f5efca" style="" class="" />
                    <path id="Shape"
                        d="m41 22c-.2651948-.0000566-.5195073-.1054506-.707-.293l-10-10c-.3789722-.3923789-.3735524-1.0160848.0121814-1.4018186.3857338-.38573377 1.0094397-.39115361 1.4018186-.0121814l10 10c.2859079.2859943.3714219.7160366.216678 1.0896546-.1547439.3736179-.5192821.6172591-.923678.6173454z"
                        fill="#f5efca" data-original="#f5efca" style="" class="" />
                </g>
            </g>
        </g>
    </g>
</svg>